<mxfile host="app.diagrams.net" modified="2022-10-28T01:06:08.948Z" agent="5.0 (Windows NT 10.0; Win64; x64) AppleWebKit/537.36 (KHTML, like Gecko) Chrome/106.0.0.0 Safari/537.36 Edg/106.0.1370.47" etag="1jKiXxrxSN5V9CQd2j8t" version="20.5.1" type="github">
  <diagram id="gK6ZuUmNWVUIVgPeDIfh" name="Page-1">
    <mxGraphModel dx="848" dy="570" grid="1" gridSize="10" guides="1" tooltips="1" connect="1" arrows="1" fold="1" page="1" pageScale="1" pageWidth="850" pageHeight="1100" math="0" shadow="0">
      <root>
        <mxCell id="0" />
        <mxCell id="1" parent="0" />
        <mxCell id="kB0pfAd7R4ro7EY6JOf0-27" value="" style="rounded=0;whiteSpace=wrap;html=1;fillColor=#D4E1F5;" vertex="1" parent="1">
          <mxGeometry x="185" y="314" width="305" height="266" as="geometry" />
        </mxCell>
        <mxCell id="kB0pfAd7R4ro7EY6JOf0-23" value="" style="ellipse;whiteSpace=wrap;html=1;aspect=fixed;" vertex="1" parent="1">
          <mxGeometry x="320" y="330" width="80" height="80" as="geometry" />
        </mxCell>
        <mxCell id="kB0pfAd7R4ro7EY6JOf0-1" value="" style="shape=cube;whiteSpace=wrap;html=1;boundedLbl=1;backgroundOutline=1;darkOpacity=0.05;darkOpacity2=0.1;size=10;" vertex="1" parent="1">
          <mxGeometry x="200" y="340" width="80" height="60" as="geometry" />
        </mxCell>
        <mxCell id="kB0pfAd7R4ro7EY6JOf0-2" value="Training&lt;br&gt;Data" style="text;html=1;strokeColor=none;fillColor=none;align=center;verticalAlign=middle;whiteSpace=wrap;rounded=0;" vertex="1" parent="1">
          <mxGeometry x="210" y="360" width="70" height="30" as="geometry" />
        </mxCell>
        <mxCell id="kB0pfAd7R4ro7EY6JOf0-3" value="" style="endArrow=classic;html=1;rounded=0;" edge="1" parent="1">
          <mxGeometry width="50" height="50" relative="1" as="geometry">
            <mxPoint x="280" y="370" as="sourcePoint" />
            <mxPoint x="320" y="370" as="targetPoint" />
          </mxGeometry>
        </mxCell>
        <mxCell id="kB0pfAd7R4ro7EY6JOf0-8" value="" style="shape=cube;whiteSpace=wrap;html=1;boundedLbl=1;backgroundOutline=1;darkOpacity=0.05;darkOpacity2=0.1;size=10;" vertex="1" parent="1">
          <mxGeometry x="200" y="420" width="80" height="60" as="geometry" />
        </mxCell>
        <mxCell id="kB0pfAd7R4ro7EY6JOf0-9" value="Validation&lt;br&gt;Data" style="text;html=1;strokeColor=none;fillColor=none;align=center;verticalAlign=middle;whiteSpace=wrap;rounded=0;" vertex="1" parent="1">
          <mxGeometry x="210" y="440" width="70" height="30" as="geometry" />
        </mxCell>
        <mxCell id="kB0pfAd7R4ro7EY6JOf0-10" value="" style="shape=cube;whiteSpace=wrap;html=1;boundedLbl=1;backgroundOutline=1;darkOpacity=0.05;darkOpacity2=0.1;size=10;" vertex="1" parent="1">
          <mxGeometry x="200" y="500" width="80" height="60" as="geometry" />
        </mxCell>
        <mxCell id="kB0pfAd7R4ro7EY6JOf0-11" value="Test&lt;br&gt;Data" style="text;html=1;strokeColor=none;fillColor=none;align=center;verticalAlign=middle;whiteSpace=wrap;rounded=0;" vertex="1" parent="1">
          <mxGeometry x="210" y="520" width="70" height="30" as="geometry" />
        </mxCell>
        <mxCell id="kB0pfAd7R4ro7EY6JOf0-12" value="Model Training" style="text;html=1;strokeColor=none;fillColor=none;align=center;verticalAlign=middle;whiteSpace=wrap;rounded=0;" vertex="1" parent="1">
          <mxGeometry x="330" y="355" width="60" height="30" as="geometry" />
        </mxCell>
        <mxCell id="kB0pfAd7R4ro7EY6JOf0-13" value="" style="endArrow=classic;html=1;rounded=0;" edge="1" parent="1">
          <mxGeometry width="50" height="50" relative="1" as="geometry">
            <mxPoint x="360" y="450" as="sourcePoint" />
            <mxPoint x="360" y="410" as="targetPoint" />
          </mxGeometry>
        </mxCell>
        <mxCell id="kB0pfAd7R4ro7EY6JOf0-14" value="" style="endArrow=none;html=1;rounded=0;exitX=0.988;exitY=0.362;exitDx=0;exitDy=0;exitPerimeter=0;" edge="1" parent="1">
          <mxGeometry width="50" height="50" relative="1" as="geometry">
            <mxPoint x="279.99999999999994" y="450.43" as="sourcePoint" />
            <mxPoint x="361" y="450" as="targetPoint" />
          </mxGeometry>
        </mxCell>
        <mxCell id="kB0pfAd7R4ro7EY6JOf0-15" value="" style="rhombus;whiteSpace=wrap;html=1;" vertex="1" parent="1">
          <mxGeometry x="400" y="490" width="80" height="80" as="geometry" />
        </mxCell>
        <mxCell id="kB0pfAd7R4ro7EY6JOf0-16" value="" style="endArrow=none;html=1;rounded=0;entryX=1;entryY=0.5;entryDx=0;entryDy=0;" edge="1" parent="1">
          <mxGeometry width="50" height="50" relative="1" as="geometry">
            <mxPoint x="440" y="370" as="sourcePoint" />
            <mxPoint x="400" y="370" as="targetPoint" />
          </mxGeometry>
        </mxCell>
        <mxCell id="kB0pfAd7R4ro7EY6JOf0-17" value="" style="endArrow=classic;html=1;rounded=0;entryX=0.5;entryY=0;entryDx=0;entryDy=0;" edge="1" parent="1" target="kB0pfAd7R4ro7EY6JOf0-15">
          <mxGeometry width="50" height="50" relative="1" as="geometry">
            <mxPoint x="440" y="370" as="sourcePoint" />
            <mxPoint x="320" y="390" as="targetPoint" />
          </mxGeometry>
        </mxCell>
        <mxCell id="kB0pfAd7R4ro7EY6JOf0-18" value="Trained&lt;br&gt;Model" style="text;html=1;strokeColor=none;fillColor=none;align=center;verticalAlign=middle;whiteSpace=wrap;rounded=0;" vertex="1" parent="1">
          <mxGeometry x="410" y="515" width="60" height="30" as="geometry" />
        </mxCell>
        <mxCell id="kB0pfAd7R4ro7EY6JOf0-19" value="" style="endArrow=classic;html=1;rounded=0;entryX=0;entryY=0.5;entryDx=0;entryDy=0;" edge="1" parent="1" target="kB0pfAd7R4ro7EY6JOf0-15">
          <mxGeometry width="50" height="50" relative="1" as="geometry">
            <mxPoint x="280" y="530" as="sourcePoint" />
            <mxPoint x="350" y="460" as="targetPoint" />
          </mxGeometry>
        </mxCell>
        <mxCell id="kB0pfAd7R4ro7EY6JOf0-20" value="" style="endArrow=classic;html=1;rounded=0;" edge="1" parent="1">
          <mxGeometry width="50" height="50" relative="1" as="geometry">
            <mxPoint x="480" y="530" as="sourcePoint" />
            <mxPoint x="520" y="530" as="targetPoint" />
          </mxGeometry>
        </mxCell>
        <mxCell id="kB0pfAd7R4ro7EY6JOf0-21" value="" style="rounded=1;whiteSpace=wrap;html=1;" vertex="1" parent="1">
          <mxGeometry x="520" y="515" width="120" height="30" as="geometry" />
        </mxCell>
        <mxCell id="kB0pfAd7R4ro7EY6JOf0-22" value="Evaluation Results" style="text;html=1;strokeColor=none;fillColor=none;align=center;verticalAlign=middle;whiteSpace=wrap;rounded=0;" vertex="1" parent="1">
          <mxGeometry x="520" y="515" width="120" height="30" as="geometry" />
        </mxCell>
        <mxCell id="kB0pfAd7R4ro7EY6JOf0-24" value="" style="html=1;shadow=0;dashed=0;align=center;verticalAlign=middle;shape=mxgraph.arrows2.jumpInArrow;dy=3.17;dx=8.38;arrowHead=18.29;fillColor=#FF3333;" vertex="1" parent="1">
          <mxGeometry x="330" y="334" width="34" height="40" as="geometry" />
        </mxCell>
        <mxCell id="kB0pfAd7R4ro7EY6JOf0-25" value="" style="html=1;shadow=0;dashed=0;align=center;verticalAlign=middle;shape=mxgraph.arrows2.jumpInArrow;dy=3.17;dx=8.38;arrowHead=18.29;rotation=-180;fillColor=#FF3333;" vertex="1" parent="1">
          <mxGeometry x="358" y="366" width="34" height="40" as="geometry" />
        </mxCell>
        <mxCell id="kB0pfAd7R4ro7EY6JOf0-33" value="" style="rounded=1;whiteSpace=wrap;html=1;labelBackgroundColor=#A680B8;fillColor=#D5E8D4;" vertex="1" parent="1">
          <mxGeometry x="220" y="200" width="235" height="80" as="geometry" />
        </mxCell>
        <mxCell id="kB0pfAd7R4ro7EY6JOf0-35" value="" style="shape=ext;double=1;rounded=0;whiteSpace=wrap;html=1;labelBackgroundColor=#A680B8;fillColor=#FFFFFF;" vertex="1" parent="1">
          <mxGeometry x="235" y="215" width="80" height="55" as="geometry" />
        </mxCell>
        <mxCell id="kB0pfAd7R4ro7EY6JOf0-38" value="Informed&lt;br&gt;Dataset Selection" style="text;html=1;strokeColor=none;fillColor=none;align=center;verticalAlign=middle;whiteSpace=wrap;rounded=0;labelBackgroundColor=#FFFFFF;" vertex="1" parent="1">
          <mxGeometry x="245" y="230" width="60" height="30" as="geometry" />
        </mxCell>
        <mxCell id="kB0pfAd7R4ro7EY6JOf0-39" value="" style="shape=ext;double=1;rounded=0;whiteSpace=wrap;html=1;labelBackgroundColor=#A680B8;fillColor=#FFFFFF;" vertex="1" parent="1">
          <mxGeometry x="355" y="215" width="80" height="55" as="geometry" />
        </mxCell>
        <mxCell id="kB0pfAd7R4ro7EY6JOf0-40" value="Informed&lt;br&gt;Model Configuration" style="text;html=1;strokeColor=none;fillColor=none;align=center;verticalAlign=middle;whiteSpace=wrap;rounded=0;labelBackgroundColor=#FFFFFF;" vertex="1" parent="1">
          <mxGeometry x="365" y="230" width="60" height="30" as="geometry" />
        </mxCell>
        <mxCell id="kB0pfAd7R4ro7EY6JOf0-42" value="" style="endArrow=none;html=1;rounded=0;entryX=0.5;entryY=0;entryDx=0;entryDy=0;" edge="1" parent="1" target="kB0pfAd7R4ro7EY6JOf0-22">
          <mxGeometry width="50" height="50" relative="1" as="geometry">
            <mxPoint x="580" y="240" as="sourcePoint" />
            <mxPoint x="570" y="500" as="targetPoint" />
          </mxGeometry>
        </mxCell>
        <mxCell id="kB0pfAd7R4ro7EY6JOf0-43" value="" style="endArrow=classic;html=1;rounded=0;entryX=1;entryY=0.5;entryDx=0;entryDy=0;" edge="1" parent="1" target="kB0pfAd7R4ro7EY6JOf0-33">
          <mxGeometry width="50" height="50" relative="1" as="geometry">
            <mxPoint x="580" y="240" as="sourcePoint" />
            <mxPoint x="380" y="300" as="targetPoint" />
          </mxGeometry>
        </mxCell>
        <mxCell id="kB0pfAd7R4ro7EY6JOf0-44" value="" style="endArrow=classic;html=1;rounded=0;exitX=0.5;exitY=1;exitDx=0;exitDy=0;entryX=0.5;entryY=0;entryDx=0;entryDy=0;" edge="1" parent="1" source="kB0pfAd7R4ro7EY6JOf0-33" target="kB0pfAd7R4ro7EY6JOf0-27">
          <mxGeometry width="50" height="50" relative="1" as="geometry">
            <mxPoint x="440" y="440" as="sourcePoint" />
            <mxPoint x="500" y="280" as="targetPoint" />
          </mxGeometry>
        </mxCell>
        <mxCell id="kB0pfAd7R4ro7EY6JOf0-45" value="" style="endArrow=classic;html=1;rounded=0;exitX=0.5;exitY=1;exitDx=0;exitDy=0;" edge="1" parent="1" source="kB0pfAd7R4ro7EY6JOf0-27">
          <mxGeometry width="50" height="50" relative="1" as="geometry">
            <mxPoint x="360" y="460" as="sourcePoint" />
            <mxPoint x="338" y="610" as="targetPoint" />
          </mxGeometry>
        </mxCell>
        <mxCell id="kB0pfAd7R4ro7EY6JOf0-46" value="" style="rhombus;whiteSpace=wrap;html=1;" vertex="1" parent="1">
          <mxGeometry x="297.5" y="610" width="80" height="80" as="geometry" />
        </mxCell>
        <mxCell id="kB0pfAd7R4ro7EY6JOf0-47" value="Final&lt;br&gt;Model" style="text;html=1;strokeColor=none;fillColor=none;align=center;verticalAlign=middle;whiteSpace=wrap;rounded=0;" vertex="1" parent="1">
          <mxGeometry x="307.5" y="635" width="60" height="30" as="geometry" />
        </mxCell>
      </root>
    </mxGraphModel>
  </diagram>
</mxfile>
